# xmcd
#
# Track frame offsets:
#	150
#	6352
#	13605
#	19950
#	27231
#	33674
#	38858
#	48500
#	62888
#	70336
#	76284
#	79596
#	91339
#	95586
#	100631
#	104752
#	108764
#	112977
#	122056
#	130719
#	133761
#	140404
#	145692
#	151935
#	160137
#	165887
#	179550
#	191331
#	204544
#	215234
#	224795
#
# Disc length: 3086 seconds
#
# Revision: 2
# Processed by: cddbd v1.5.2PL0 Copyright (c) Steve Scherf et al.
# Submitted via: audiograbber 1.83.01
#
DISCID=b50c0c1f
DTITLE=יפה ירקוני - גדלתי בשנה - שירי יום הולדת וכבקשתך
DYEAR=1900
DGENRE=
TTITLE0=היום יום הולדת
TTITLE1=יום הולדת ל...
TTITLE2=רק ביום הולדת
TTITLE3=לרותי יום הולדת
TTITLE4=גדלתי בשנה
TTITLE5=מה נחמד ומה נעים
TTITLE6=אמא שוב אפתה עוגה
TTITLE7=הפסנתר
TTITLE8=מה היה מה קרה
TTITLE9=מים
TTITLE10=גשם משמים
TTITLE11=שבת שלום
TTITLE12=יום הולדת
TTITLE13=שימי ידך
TTITLE14=אוניה
TTITLE15=רד אלינו אווירון
TTITLE16=רכבת
TTITLE17=הדובים
TTITLE18=ציפור ביער
TTITLE19=חתול ועכבר
TTITLE20=הדבורה
TTITLE21=אמא אווזה
TTITLE22=שפנפנים
TTITLE23=תרנגול ותרנגולת
TTITLE24=דוגרת
TTITLE25=דן הפטפטן
TTITLE26=פיט ופוט
TTITLE27=שיר ערש
TTITLE28=חבר
TTITLE29=הרמזור
TTITLE30=הכלבלב
EXTD=
EXTT0=
EXTT1=
EXTT2=
EXTT3=
EXTT4=
EXTT5=
EXTT6=
EXTT7=
EXTT8=
EXTT9=
EXTT10=
EXTT11=
EXTT12=
EXTT13=
EXTT14=
EXTT15=
EXTT16=
EXTT17=
EXTT18=
EXTT19=
EXTT20=
EXTT21=
EXTT22=
EXTT23=
EXTT24=
EXTT25=
EXTT26=
EXTT27=
EXTT28=
EXTT29=
EXTT30=
PLAYORDER=
